#!OML:ASF E:\basketball\basketball\Project 1\Capture day 1\Session 1\Subject.ASF
:FULLY-SPECIFIED
:DEGREES
33
root -5.01204 14.5749 8.59235 -180.33 72.2516 -189.999
lowerback 19.6848 2.9634 -10.1301
upperback 10.1728 3.11936 -0.246055
thorax -0.312954 1.59147 4.84254
lowerneck -5.51703 -7.7022 -11.4034
upperneck -18.3754 -6.5693 22.7834
head -2.99782 -3.14714 9.18609
rclavicle 5.26779e-014 -5.01434e-014
rhumerus 8.9803 -36.8796 -80.5489
rradius 37.1453
rwrist -13.712
rhand -20.3166 34.2666
rfingers 7.12502
rthumb 6.03418 4.3725
lclavicle 5.26779e-014 -5.01434e-014
lhumerus -8.38406 -15.2365 95.43
lradius 58.7249
lwrist 17.4528
lhand -21.7376 25.0362
lfingers 7.12502
lthumb 4.6621 54.9649
rfemur -32.8362 -15.6854 4.21011
rtibia 121.655
rfoot -10.961 -5.40111
rtoes -24.1731
lfemur -25.1879 12.4092 -38.591
ltibia 56.854
lfoot -26.7524 1.2392
ltoes -12.4881
34
root -4.41687 14.5808 8.39878 -180.21 72.1628 -190.226
lowerback 19.0365 2.59353 -10.3218
upperback 9.87031 2.61242 -0.21766
thorax -0.243975 1.31647 5.10181
lowerneck -5.78128 -7.20075 -11.0843
upperneck -17.1448 -6.22575 21.6676
head -2.74446 -2.94455 8.70142
rclavicle -2.42517e-014 -4.23411e-014
rhumerus 8.73886 -34.8613 -79.7053
rradius 39.2565
rwrist -15.6762
rhand -19.9294 34.7798
rfingers 7.12502
rthumb 6.40796 4.89669
lclavicle -2.42517e-014 -4.23411e-014
lhumerus -6.95256 -17.091 93.6065
lradius 61.2204
lwrist 16.4542
lhand -21.9767 24.4187
lfingers 7.12502
lthumb 4.43129 54.3523
rfemur -38.858 -13.1596 5.83261
rtibia 120.783
rfoot -9.79549 -5.08312
rtoes -9.72066
lfemur -22.6526 12.5337 -37.992
ltibia 56.6374
lfoot -26.3884 0.731302
ltoes -15.8113
35
root -3.82903 14.5633 8.21588 -180.194 71.8493 -190.476
lowerback 18.3438 2.1306 -10.69
upperback 9.67787 1.98752 -0.00535833
thorax -0.00637767 0.964588 5.67781
lowerneck -6.46276 -6.62177 -11.0379
upperneck -16.0054 -5.6943 20.4785
head -2.46373 -2.6056 8.25154
rclavicle 4.82053e-014 1.37161e-014
rhumerus 8.8744 -32.4395 -78.677
rradius 41.1643
rwrist -17.6598
rhand -19.5649 35.7676
rfingers 7.12502
rthumb 6.75984 5.89546
lclavicle 4.82053e-014 1.37161e-014
lhumerus -5.57634 -18.0731 91.8655
lradius 63.5923
lwrist 15.6159
lhand -22.3502 22.8901
lfingers 7.12502
lthumb 4.07056 52.831
rfemur -42.3312 -12.682 6.60777
rtibia 119.891
rfoot -12.0572 -7.51777
rtoes -22.9526
lfemur -20.2206 12.5242 -37.3718
ltibia 56.4626
lfoot -25.3398 0.399316
ltoes -20.0086
36
root -3.21679 14.5664 8.02304 -179.974 71.3903 -190.337
lowerback 17.7872 1.58637 -11.1284
upperback 9.51372 1.24291 0.408811
thorax 0.231749 0.544876 6.52162
lowerneck -6.63524 -6.0752 -11.585
upperneck -14.9418 -5.16756 19.8686
head -2.22889 -2.29771 8.12579
rclavicle -2.05742e-014 2.33572e-014
rhumerus 8.92566 -29.5461 -77.3703
rradius 43.2234
rwrist -19.637
rhand -19.2511 36.4411
rfingers 7.12502
rthumb 7.06274 6.57894
lclavicle -2.05742e-014 2.33572e-014
lhumerus -4.62678 -18.2699 90.3576
lradius 65.9209
lwrist 14.5917
lhand -23.4545 21.852
lfingers 7.12502
lthumb 3.00413 51.8105
rfemur -46.4396 -11.2104 7.61905
rtibia 117.888
rfoot -12.0337 -8.50478
rtoes -26.356
lfemur -17.456 12.3984 -36.4572
ltibia 56.1026
lfoot -23.7206 -0.373195
ltoes -22.6586
37
root -2.58741 14.586 7.82267 -179.187 71.058 -189.544
lowerback 17.2355 1.06734 -11.4205
upperback 9.33373 0.550449 0.857791
thorax 0.461744 0.154025 7.30075
lowerneck -6.75066 -5.54244 -11.8833
upperneck -13.9257 -4.66735 19.1026
head -2.02943 -2.02027 7.90969
rclavicle 2.19657e-014 2.68359e-015
rhumerus 8.52182 -26.6913 -75.9949
rradius 45.6878
rwrist -21.4161
rhand -19.3484 36.378
rfingers 7.12502
rthumb 6.96881 6.51268
lclavicle 2.19657e-014 2.68359e-015
lhumerus -3.92386 -18.1239 88.8395
lradius 67.9337
lwrist 14.06
lhand -24.5873 21.0356
lfingers 7.12502
lthumb 1.91019 51.0068
rfemur -49.9442 -9.3939 8.58224
rtibia 115.159
rfoot -11.0328 -9.57764
rtoes -28.5857
lfemur -14.628 12.3732 -35.2231
ltibia 55.5889
lfoot -21.3192 -1.04894
ltoes -24.5898
38
root -1.93993 14.6274 7.60918 -178.158 70.7886 -188.547
lowerback 16.5508 0.60529 -11.3825
upperback 9.15918 -0.00784116 1.16788
thorax 0.74393 -0.158074 7.70617
lowerneck -6.9695 -5.01238 -11.9633
upperneck -13.1773 -4.09455 18.3826
head -1.90138 -1.70961 7.68158
rclavicle -1.37161e-014 -6.85807e-015
rhumerus 7.78704 -24.5358 -74.8305
rradius 48.3893
rwrist -22.7071
rhand -19.0397 36.7178
rfingers 7.12502
rthumb 7.26683 6.86254
lclavicle -1.37161e-014 -6.85807e-015
lhumerus -3.34572 -18.2556 87.2787
lradius 69.6286
lwrist 14.123
lhand -25.7845 20.9495
lfingers 7.12502
lthumb 0.753921 50.9279
rfemur -52.8904 -7.48309 9.25172
rtibia 111.656
rfoot -10.6829 -9.54936
rtoes -30.5612
lfemur -11.7611 12.287 -33.9234
ltibia 54.6801
lfoot -18.1291 -1.7192
ltoes -24.3622
39
root -1.28088 14.6707 7.38367 -177.241 70.6413 -187.631
lowerback 16.0927 0.176863 -10.892
upperback 8.77877 -0.523541 1.15192
thorax 0.650503 -0.397649 7.48179
lowerneck -7.15073 -4.44684 -12.0001
upperneck -12.0703 -3.50657 17.8838
head -1.66545 -1.40196 7.51242
rclavicle 7.65321e-015 3.33958e-014
rhumerus 6.33846 -22.9052 -74.0473
rradius 51.4025
rwrist -23.4534
rhand -18.3629 37.2957
rfingers 7.12502
rthumb 7.9201 7.46406
lclavicle 7.65321e-015 3.33958e-014
lhumerus -3.49321 -18.7544 85.5323
lradius 71.1573
lwrist 14.9853
lhand -26.9328 20.403
lfingers 7.12502
lthumb -0.355206 50.3825
rfemur -55.0898 -5.76249 9.55295
rtibia 107.533
rfoot -10.6647 -9.71476
rtoes -35.7659
lfemur -8.72567 12.0173 -32.6961
ltibia 53.2723
lfoot -14.1881 -2.1593
ltoes -23.1352
40
root -0.607933 14.7162 7.14741 -176.651 70.9017 -187.059
lowerback 15.0398 -0.129245 -10.6021
upperback 8.63913 -0.817171 1.09518
thorax 1.09517 -0.568841 7.27832
lowerneck -6.6557 -4.06716 -12.0361
upperneck -11.5623 -3.14052 17.685
head -1.66493 -1.24834 7.4604
rclavicle 5.76476e-015 2.36554e-014
rhumerus 5.16664 -21.7943 -73.7271
rradius 54.5033
rwrist -23.76
rhand -17.7647 37.5374
rfingers 7.12502
rthumb 8.49745 7.72838
lclavicle 5.76476e-015 2.36554e-014
lhumerus -3.63775 -19.2837 83.778
lradius 72.6056
lwrist 16.7378
lhand -27.6794 20.4503
lfingers 7.12502
lthumb -1.07629 50.4273
rfemur -56.8285 -3.97841 9.51721
rtibia 102.901
rfoot -10.3499 -9.52008
rtoes -39.4756
lfemur -5.56231 11.9416 -31.6679
ltibia 51.2741
lfoot -9.53097 -2.19013
ltoes -23.0446
41
root 0.0838268 14.7907 6.90012 -176.827 70.9743 -186.771
lowerback 14.4055 -0.428079 -10.6406
upperback 8.62849 -1.15981 1.21431
thorax 1.4957 -0.774887 7.4597
lowerneck -6.5544 -3.54675 -11.7999
upperneck -11.1318 -2.59097 16.7043
head -1.68109 -0.97952 7.10547
rclavicle 1.68967e-014 -9.93923e-015
rhumerus 4.14447 -21.078 -73.6061
rradius 57.59
rwrist -24.2063
rhand -20.7935 38.207
rfingers 7.12502
rthumb 5.5737 8.30029
lclavicle 1.68967e-014 -9.93923e-015
lhumerus -4.17395 -19.5214 82.4792
lradius 73.869
lwrist 18.7613
lhand -28.1312 19.5414
lfingers 7.12502
lthumb -1.51261 49.5157
rfemur -57.4662 -2.44192 9.21302
rtibia 97.7244
rfoot -10.9416 -8.39517
rtoes -38.9573
lfemur -1.66487 11.7503 -30.6288
ltibia 48.5945
lfoot -4.19861 -2.15214
ltoes -22.5758
